<?xml version="1.0" encoding="UTF-8" standalone="no"?>
<!DOCTYPE svg PUBLIC "-//W3C//DTD SVG 1.1//EN" "http://www.w3.org/Graphics/SVG/1.1/DTD/svg11.dtd">
<svg xmlns="http://www.w3.org/2000/svg" xmlns:xlink="http://www.w3.org/1999/xlink" version="1.1" width="3347.0059pt" height="3942.563pt" viewBox="0 0 3347.0059 3942.563">
<g enable-background="new">
<g id="Layer-1" data-name="Layer 1">
<path transform="matrix(2.7777777,0,0,-2.7777777,2.7777777,3939.7852)" d="M 527.7847 1268.761 C 530.4787 1290.7797 536.8901 1312.3375 545.9579 1332.5613 C 551.5801 1345.0997 558.3339 1357.9229 566.4127 1369.0508 L 601.4551 1417.3228 L 636.4979 1369.0508 C 644.5766 1357.9223 651.3318 1345.1034 656.9552 1332.565 C 666.0249 1312.3414 672.4389 1290.7828 675.1338 1268.7633 C 680.2492 1274.1151 685.5001 1279.3275 690.8698 1284.3967 C 708.1586 1300.7177 727.5745 1316.9959 747.8572 1329.4332 L 798.694 1360.6072 L 812.6031 1302.6178 C 818.1524 1279.482 820.37 1254.2366 821.0537 1230.4712 C 821.2912 1222.2184 821.2972 1213.9452 821.0591 1205.6737 C 836.0436 1216.0239 852.4148 1224.4003 869.4153 1230.8751 C 882.2563 1235.7664 896.0941 1240.0567 909.6752 1242.2157 L 968.612 1251.5866 L 959.2413 1192.6497 C 957.0818 1179.0695 952.7927 1165.2324 947.9021 1152.3915 C 941.4272 1135.3915 933.052 1119.0209 922.7024 1104.0364 C 930.9711 1104.2739 939.2414 1104.2675 947.4919 1104.0299 C 971.2573 1103.345 996.5007 1101.127 1019.6365 1095.5775 L 1077.626 1081.6688 L 1046.452 1030.8319 C 1034.015 1010.5486 1017.7387 991.1324 1001.418 973.8431 C 995.7518 967.8404 989.9073 961.9869 983.8913 956.3071 C 1001.8071 953.0306 1019.3068 947.3769 1035.9077 939.9336 C 1048.446 934.3117 1061.2692 927.5576 1072.3972 919.4788 L 1120.6696 884.4364 L 1072.3972 849.3936 C 1061.2692 841.3149 1048.446 834.5608 1035.9077 828.9388 C 1019.3068 821.4956 1001.8071 815.8419 983.8913 812.5654 C 989.9073 806.8856 995.7518 801.032 1001.418 795.0294 C 1017.7387 777.7395 1034.015 758.3238 1046.452 738.0405 L 1072.0525 696.2933 C 1074.3973 700.4585 1076.8629 704.5554 1079.4417 708.5854 C 1080.589 710.3786 1082.0526 712.2878 1083.0927 714.1215 C 1093.54 736.0997 1120.5502 754.9645 1145.013 755.6159 C 1171.0094 756.3081 1191.4685 739.4318 1199.0469 715.1391 C 1204.8455 696.5541 1203.1696 675.0788 1200.2672 656.0606 L 1200.0543 654.6696 L 1199.752 653.2954 C 1198.2332 646.4075 1197.6679 638.8758 1196.9263 631.8505 C 1193.6104 600.4352 1192.0678 568.8303 1190.8491 537.2736 C 1188.2174 469.1205 1177.904 404.0643 1151.0402 340.9523 C 1111.7781 248.7158 1044.7022 178.8905 958.8093 128.4262 L 958.216 128.0775 L 957.6113 127.7476 C 900.9113 96.7961 842.8932 67.767 782.8971 43.7219 C 740.8996 26.89 696.8477 11.8497 652.1437 4.2891 C 635.4607 1.4672 618.3938 -.2163 601.4611 .0227 C 584.5286 -.2163 567.4618 1.4672 550.7785 4.2891 C 506.0747 11.8497 462.0229 26.89 420.0253 43.7219 C 360.0292 67.767 302.0111 96.7961 245.3111 127.7476 L 244.7065 128.0775 L 244.1132 128.4262 C 158.2203 178.8905 91.1441 248.7158 51.8822 340.9523 C 25.018 404.0643 14.7047 469.1205 12.073 537.2736 C 10.8547 568.8303 9.3121 600.4352 5.9961 631.8505 C 5.2546 638.8758 4.6894 646.4075 3.1706 653.2954 L 2.8678 654.6696 L 2.6552 656.0606 C -.2472 675.0788 -1.923 696.5541 3.8752 715.1391 C 11.454 739.4318 31.913 756.3081 57.9095 755.6159 C 82.372 754.9645 109.3825 736.0997 119.8298 714.1215 C 120.8696 712.2878 122.3331 710.3786 123.4809 708.5854 C 126.0573 704.5586 128.5211 700.4648 130.8645 696.3035 L 156.4583 738.0405 C 168.8956 758.3238 185.1752 777.7409 201.4963 795.0302 C 207.163 801.0326 213.0075 806.8861 219.0231 812.5659 C 201.1093 815.8425 183.6105 821.4962 167.0108 828.9388 C 154.4723 834.5614 141.6492 841.3149 130.5213 849.3936 L 82.2492 884.4364 L 130.5213 919.4788 C 141.6492 927.5576 154.4723 934.3111 167.0108 939.9336 C 183.6105 947.3763 201.1093 953.03 219.0243 956.3071 C 213.008 961.9869 207.1636 967.8399 201.4968 973.8428 C 185.1752 991.1316 168.8956 1010.5486 156.4583 1030.8319 L 125.2843 1081.6688 L 183.2737 1095.5775 C 206.4107 1101.127 231.6555 1103.345 255.4217 1104.0299 C 263.6736 1104.268 271.9457 1104.2739 280.2161 1104.0364 C 269.8659 1119.0209 261.4901 1135.3912 255.0152 1152.3915 C 250.124 1165.2318 245.8344 1179.0695 243.6752 1192.6497 L 234.3044 1251.5866 L 293.241 1242.2157 C 306.822 1240.0567 320.6602 1235.7664 333.5017 1230.8757 C 350.5025 1224.4003 366.8737 1216.0239 381.8582 1205.6732 C 381.6201 1213.9447 381.6261 1222.2179 381.8636 1230.471 C 382.5473 1254.236 384.764 1279.4826 390.3131 1302.6178 L 404.2222 1360.6072 L 455.059 1329.4332 C 475.3417 1316.9959 494.7585 1300.717 512.0473 1284.3964 C 517.4172 1279.3267 522.669 1274.1134 527.7847 1268.761 Z M 1065.7616 684.3583 L 1019.6365 673.295 C 996.5013 667.7461 971.2568 665.5277 947.4919 664.8437 C 939.2394 664.6062 930.9674 664.5997 922.6964 664.8372 C 932.2826 650.9585 940.1757 635.8907 946.4338 620.2349 C 956.9126 630.6032 969.4857 638.3449 984.0917 640.6475 C 1007.4467 644.3294 1027.7311 633.4191 1040.1454 614.8502 C 1046.7986 638.6567 1054.8925 662.3158 1065.7616 684.3583 Z M 137.1626 684.3549 C 148.0303 662.3133 156.1243 638.6556 162.7767 614.8502 C 175.1913 633.4191 195.4755 644.3294 218.8307 640.6475 C 233.4351 638.3449 246.007 630.6049 256.4853 620.238 C 262.7433 635.8929 270.6358 650.9597 280.222 664.8378 C 271.9494 664.5997 263.6759 664.6062 255.4217 664.8437 C 231.6557 665.5277 206.4101 667.7456 183.2737 673.295 Z M 495.684 469.6753 C 487.7504 462.8262 479.4951 456.1994 471.018 450.0947 C 473.764 448.3539 476.5022 446.6021 479.2337 444.8387 C 484.3244 441.5519 489.405 438.2447 494.445 434.8769 C 494.4915 436.4719 494.5397 438.0673 494.589 439.6618 C 494.8997 449.6686 495.273 459.6727 495.684 469.6753 Z M 384.4695 500.2603 C 383.0054 513.0357 382.2236 525.9229 381.8648 538.4007 C 381.6272 546.6538 381.6213 554.9267 381.8594 563.1982 C 366.8754 552.8472 350.5042 544.4697 333.5037 537.9936 C 330.9809 537.0321 328.4189 536.0941 325.8289 535.1913 C 344.334 522.1959 364.6891 510.9134 384.4695 500.2603 Z M 821.058 563.1976 C 821.2961 554.9261 821.2901 546.6532 821.0526 538.4007 C 820.6937 525.9212 819.9116 513.0332 818.447 500.2571 C 838.2283 510.9106 858.585 522.1939 877.0918 535.1896 C 874.5001 536.093 871.9376 537.0313 869.4142 537.9925 C 852.4134 544.4691 836.0425 552.846 821.058 563.1976 Z M 731.901 450.093 C 722.6439 456.7589 713.6515 464.0485 705.0532 471.5691 C 705.3055 462.0762 705.5402 452.5829 705.7341 443.0886 C 705.8013 439.7797 705.865 436.4708 705.9229 433.1619 C 711.7982 437.1253 717.7365 440.9955 723.6887 444.8387 C 726.4191 446.6013 729.1562 448.3528 731.901 450.093 " fill="#ffffff" fill-rule="evenodd"/>
<path transform="matrix(2.7777777,0,0,-2.7777777,2.7777777,3939.7852)" d="M 601.4611 27.0904 C 585.4839 26.8336 569.4656 28.5772 555.2918 30.9745 C 512.9175 38.1413 469.8893 52.8942 430.0937 68.8436 C 371.2935 92.4094 313.8616 121.195 258.2787 151.503 L 258.0486 151.6286 L 257.8229 151.7613 C 176.8876 199.3422 113.7512 264.7094 76.7849 351.5522 C 51.1515 411.7723 41.6242 473.4079 39.1175 538.3179 C 37.8814 570.3449 36.2764 602.8033 32.9111 634.6911 C 32.097 642.4013 31.2698 651.5286 29.6005 659.1217 L 29.4885 659.63 L 29.41 660.1442 C 27.22 674.4061 25.3423 693.0737 29.7116 707.0788 C 33.6917 719.837 43.4041 728.928 57.1895 728.5612 C 71.4254 728.1822 89.4574 715.1777 95.4587 702.3498 C 96.6685 699.7635 99.1131 696.4529 100.6838 693.9981 C 104.8229 687.5291 108.5893 680.9567 112.0397 674.0906 C 125.4521 647.3974 134.625 616.9754 141.8457 588.0991 C 149.6942 556.7108 157.4824 524.137 170.3942 494.384 C 184.3543 462.2168 204.7504 432.6386 225.3283 404.4104 C 239.6214 384.8031 258.9418 365.2951 280.9928 354.5348 C 287.2431 351.4853 294.609 348.7277 301.5765 348.0259 C 302.9888 347.8833 306.3881 347.7404 308.3873 348.2521 C 307.8068 352.6376 302.0689 360.7818 300.0628 363.3324 C 288.7994 377.6564 271.7637 390.7304 256.8322 400.9499 C 222.5064 424.4434 193.0978 456.0744 179.5929 496.0361 C 174.8574 510.0489 170.8971 530.3452 172.8068 545.531 C 173.4823 561.1218 175.4084 580.606 182.3255 594.6769 C 188.5995 607.4388 199.893 616.2344 214.6161 613.9131 C 235.5667 610.6102 251.5927 585.326 259.4631 567.4133 C 261.6888 562.3472 264.3693 557.6094 267.412 553.1474 L 270.4042 571.9666 C 272.2147 583.3548 276.2328 596.1421 280.3085 606.8424 C 289.5534 631.1132 303.2048 654.0931 321.6334 672.5239 C 335.1424 686.0353 351.0975 696.9784 368.214 705.4988 C 332.0104 694.8567 293.7966 690.8136 256.2012 691.8968 C 235.1256 692.5037 210.2414 694.6591 189.5862 699.6129 L 167.8399 704.8287 L 179.5303 723.8931 C 190.6359 742.0028 206.7009 761.1168 221.1769 776.4517 C 246.9934 803.7992 276.8709 827.9592 309.9929 846.0317 C 291.8667 839.9557 272.8502 836.4129 253.747 836.4129 C 227.6838 836.4129 201.7826 843.0086 178.0838 853.6348 C 167.6381 858.3185 155.7502 864.5221 146.4205 871.2952 L 128.3187 884.4364 L 146.4205 897.5772 C 155.7502 904.3503 167.6381 910.554 178.0838 915.2379 C 201.7826 925.8639 227.6838 932.4595 253.747 932.4595 C 272.8508 932.4595 291.8679 928.9162 309.994 922.8402 C 276.872 940.9133 246.9937 965.0738 221.1769 992.4214 C 206.7012 1007.7557 190.6353 1026.8703 179.5303 1044.9794 L 167.8399 1064.0438 L 189.5862 1069.2595 C 210.2431 1074.2134 235.1245 1076.3694 256.2012 1076.9769 C 293.7889 1078.06 331.9943 1074.0192 368.1907 1063.3814 C 351.0828 1071.8994 335.1359 1082.8372 321.6334 1096.342 C 303.2042 1114.7734 289.5523 1137.7528 280.3071 1162.0247 C 276.2311 1172.7261 272.2153 1185.5106 270.4042 1196.8994 L 266.8901 1219.0009 L 288.9916 1215.4867 C 300.3806 1213.6757 313.1666 1209.6592 323.8685 1205.5833 C 348.1398 1196.3388 371.1197 1182.6867 389.5495 1164.257 C 403.0617 1150.7448 414.0054 1134.7875 422.5275 1117.6688 C 411.8808 1153.8751 407.8349 1192.0924 408.9169 1229.6925 C 409.523 1250.7664 411.6779 1275.6513 416.6314 1296.3053 L 421.8471 1318.0516 L 440.9113 1306.3612 C 459.0207 1295.2562 478.1341 1279.1917 493.4684 1264.716 C 528.4602 1231.6834 558.2322 1192.003 576.7135 1147.3842 C 595.1951 1102.7665 602.2032 1053.6574 600.8196 1005.558 C 600.3765 990.1463 599.1049 972.6973 596.5166 956.3559 C 599.0615 956.6314 601.6479 956.7731 604.2665 956.7731 C 604.9604 956.7731 605.6524 956.7635 606.3415 956.7434 C 603.7937 972.9734 602.5382 990.2676 602.0983 1005.558 C 600.7141 1053.6574 607.7222 1102.7665 626.2036 1147.3842 C 644.6849 1192.003 674.4569 1231.684 709.4483 1264.7166 C 724.7826 1279.1923 743.8955 1295.2562 762.0049 1306.3612 L 781.069 1318.0516 L 786.2851 1296.3053 C 791.2383 1275.6502 793.3938 1250.7676 794.0007 1229.6925 C 795.0827 1192.0944 791.0376 1153.8799 780.393 1117.6753 C 788.9142 1134.792 799.8568 1150.7474 813.3667 1164.257 C 831.7967 1182.6867 854.7772 1196.3388 879.0486 1205.5833 C 889.7505 1209.6598 902.5356 1213.6757 913.9249 1215.4867 L 936.0264 1219.0009 L 932.5123 1196.8994 C 930.7012 1185.5103 926.6862 1172.7266 922.61 1162.0247 C 913.3656 1137.7528 899.7146 1114.773 881.2851 1096.342 C 867.7826 1082.8378 851.8368 1071.8994 834.7294 1063.3816 C 870.9233 1074.0192 909.1264 1078.06 946.7124 1076.9769 C 967.7886 1076.3694 992.6685 1074.2134 1013.324 1069.2595 L 1035.0703 1064.0438 L 1023.3802 1044.9794 C 1012.2741 1026.8685 996.2133 1007.7571 981.737 992.4214 C 955.9213 965.0733 926.0444 940.9127 892.9225 922.8396 C 911.0492 928.9162 930.0657 932.4595 949.1695 932.4595 C 975.2329 932.4595 1001.1353 925.8639 1024.8347 915.2379 C 1035.2803 910.554 1047.1683 904.3503 1056.498 897.5772 L 1074.5997 884.4364 L 1056.498 871.2952 C 1047.1683 864.5221 1035.2803 858.3185 1024.8347 853.6348 C 1001.1353 843.0086 975.2329 836.4129 949.1695 836.4129 C 930.0662 836.4129 911.05 839.9563 892.9239 846.0323 C 926.0456 827.9592 955.9219 803.7992 981.737 776.4511 C 996.2138 761.1154 1012.2741 742.0039 1023.3802 723.8931 L 1035.0703 704.8287 L 1013.324 699.6129 C 992.6697 694.6597 967.7874 692.5042 946.7124 691.8968 C 909.1182 690.8142 870.9063 694.8573 834.7051 705.4988 C 851.8218 696.9779 867.776 686.0353 881.2851 672.5239 C 899.714 654.0936 913.3648 631.1132 922.6089 606.8424 C 926.6848 596.141 930.7012 583.3553 932.5123 571.9666 L 935.5056 553.1406 C 938.5498 557.6046 941.2325 562.3447 943.4594 567.4133 C 951.3298 585.326 967.3557 610.6102 988.3063 613.9131 C 1003.0292 616.2344 1014.3227 607.4388 1020.5969 594.6769 C 1027.514 580.606 1029.4398 561.1218 1030.1154 545.531 C 1032.025 530.3452 1028.065 510.0489 1023.3292 496.0361 C 1009.8247 456.0744 980.4158 424.4434 946.0899 400.9499 C 931.1584 390.7304 914.1231 377.6564 902.8593 363.3324 C 900.8532 360.7818 895.1156 352.6376 894.5348 348.2521 C 896.5344 347.7404 899.9337 347.8833 901.3459 348.0259 C 908.3134 348.7277 915.6793 351.4853 921.9294 354.5348 C 943.9807 365.2951 963.3008 384.8031 977.5942 404.4104 C 998.1717 432.6386 1018.5681 462.2168 1032.528 494.384 C 1045.44 524.137 1053.2279 556.7108 1061.0768 588.0991 C 1068.2974 616.9754 1077.4701 647.3974 1090.8828 674.0906 C 1094.3328 680.9567 1098.0993 687.5291 1102.2384 693.9981 C 1103.8093 696.4529 1106.2536 699.7635 1107.4635 702.3498 C 1113.4647 715.1777 1131.4967 728.1822 1145.7326 728.5612 C 1159.5183 728.928 1169.2307 719.837 1173.2108 707.0788 C 1177.5801 693.0737 1175.7022 674.4061 1173.5121 660.1442 L 1173.434 659.63 L 1173.3217 659.1217 C 1171.6524 651.5286 1170.8252 642.4013 1170.0111 634.6911 C 1166.646 602.8033 1165.0411 570.3449 1163.8049 538.3179 C 1161.2979 473.4079 1151.7713 411.7723 1126.1375 351.5522 C 1089.1718 264.7094 1026.0352 199.3422 945.0995 151.7613 L 944.8736 151.6286 L 944.6437 151.503 C 889.0608 121.195 831.6289 92.4094 772.8284 68.8436 C 733.0329 52.8942 690.0046 38.1413 647.6304 30.9745 C 633.4569 28.5772 617.4383 26.8336 601.4611 27.0904 Z M 520.8296 378.4144 C 520.6105 398.5546 521.0169 418.7307 521.6403 438.8221 C 522.6727 472.0791 524.4092 505.3337 525.8733 538.5932 C 515.7692 526.445 504.8966 514.9466 493.4679 504.157 C 478.1341 489.6819 459.0207 473.6169 440.9113 462.5118 L 421.8471 450.8215 L 416.6314 472.5677 C 411.6784 493.2201 409.5241 518.1066 408.918 539.1791 C 407.8363 576.786 411.8842 615.0104 422.5357 651.2227 C 414.0119 634.0969 403.0659 618.133 389.55 604.616 C 371.1203 586.1846 348.141 572.531 323.8688 563.2846 C 313.1683 559.2084 300.38 555.1903 288.9916 553.3792 L 269.4492 550.2722 C 276.9197 540.1159 286.2564 531.4051 296.2681 523.4729 C 320.6228 504.1769 350.3585 487.842 377.6953 473.1763 C 407.2669 457.3111 436.3569 440.3064 464.5539 422.1011 C 475.488 415.0423 486.6369 407.7218 497.1396 400.0173 L 497.7669 399.5572 L 498.3477 399.0385 C 505.8482 392.3439 513.3566 385.4642 520.8296 378.4144 Z M 933.4721 550.2711 L 913.9249 553.3792 C 902.5362 555.1903 889.7494 559.2078 879.0486 563.2843 C 854.7761 572.5307 831.7962 586.1846 813.3661 604.616 C 799.852 618.1311 788.9071 634.0929 780.385 651.2162 C 791.0348 615.0061 795.0815 576.7841 793.9996 539.1791 C 793.3927 518.1055 791.2383 493.2213 786.2851 472.5677 L 781.069 450.8215 L 762.0049 462.5118 C 743.8961 473.6169 724.7826 489.6819 709.4489 504.157 C 697.6953 515.2524 686.5308 527.0978 676.1852 539.6292 C 676.8791 507.2494 678.0152 474.8655 678.6751 442.5367 C 679.1304 420.2203 679.4101 397.8411 679.0192 375.5032 C 687.5062 383.5735 696.045 391.4254 704.5747 399.0385 L 705.1555 399.5572 L 705.7828 400.0173 C 716.2855 407.7218 727.4344 415.0423 738.3685 422.1011 C 766.5653 440.3064 795.6553 457.3111 825.2271 473.1763 C 852.5639 487.842 882.2996 504.1769 906.6543 523.4729 C 916.6654 531.4051 926.0022 540.1154 933.4721 550.2711 Z M 656.9725 933.3833 C 666.438 946.2254 677.389 958.8597 687.5566 969.6302 C 717.7377 1001.6022 753.4692 1029.2156 793.4462 1047.8418 C 789.1345 1046.7147 784.8403 1045.7748 780.7266 1045.1203 L 758.6252 1041.6061 L 762.1393 1063.7077 C 762.7924 1067.8175 763.7332 1072.1095 764.8603 1076.4193 C 746.2349 1036.4451 718.6207 1000.7161 686.6498 970.5365 C 675.8456 960.338 663.1665 949.3515 650.2833 939.8659 C 652.6519 937.8524 654.8865 935.6865 656.9725 933.3833 Z M 598.4955 814.6845 C 599.7453 812.9157 600.986 811.1398 602.2179 809.3582 C 602.9399 808.3142 603.6582 807.2677 604.3734 806.2189 C 604.836 806.9094 605.3 807.5996 605.7655 808.2887 C 606.0643 810.3733 606.3831 812.4443 606.7236 814.4957 C 605.9083 814.468 605.0889 814.4541 604.2665 814.4541 C 602.3239 814.4541 600.3992 814.532 598.4955 814.6845 Z M 555.7212 937.6254 C 541.7872 947.594 527.9346 959.5244 516.2686 970.537 C 484.2975 1000.7167 456.683 1036.446 438.0571 1076.421 C 439.1847 1072.1106 440.1261 1067.8181 440.7795 1063.7077 L 444.2933 1041.6061 L 422.1918 1045.1203 C 418.0788 1045.7742 413.7851 1046.7147 409.4734 1047.8418 C 449.4498 1029.2156 485.1808 1001.6016 515.3621 969.6302 C 526.4677 957.8659 538.507 943.8786 548.5258 929.8261 C 550.7289 932.6018 553.1349 935.2091 555.7212 937.6254 Z M 442.6095 885.7587 C 411.1081 887.847 379.7867 893.8548 350.1771 904.6395 C 354.0214 902.3888 357.7201 900.0198 361.0848 897.5772 L 379.1866 884.4364 L 361.0848 871.2952 C 357.7195 868.8526 354.0209 866.4831 350.1765 864.2327 C 380.3465 875.2212 412.293 881.2502 444.3968 883.2274 C 443.8023 884.0718 443.2071 884.9157 442.6095 885.7587 Z M 502.52 786.2332 C 475.2119 759.7998 443.9166 737.0776 409.4694 721.029 C 413.7831 722.1572 418.0782 723.0983 422.1918 723.7522 L 444.2933 727.2663 L 440.7795 705.1649 C 440.1249 701.0484 439.1816 696.7483 438.0511 692.4305 C 454.0507 726.7725 476.682 757.9828 503.011 785.2326 C 502.8474 785.5665 502.6839 785.8998 502.52 786.2332 Z M 705.0574 779.8005 C 729.1865 753.8615 749.9205 724.5133 764.8662 692.4322 C 763.7366 696.7494 762.7935 701.049 762.1393 705.1649 L 758.6252 727.2663 L 780.7266 723.7522 C 784.8408 723.0977 789.1359 722.1566 793.4491 721.029 C 761.2087 736.0498 731.7295 756.9164 705.6961 781.1997 C 705.4824 780.7337 705.2698 780.2671 705.0574 779.8005 Z M 763.2173 882.9099 C 793.7371 880.651 824.0431 874.6855 852.7408 864.233 C 848.897 866.4837 845.1984 868.8526 841.8339 871.2952 L 823.7319 884.4364 L 841.8339 897.5772 C 845.1984 900.0198 848.897 902.3888 852.7408 904.6395 C 824.7243 894.435 795.174 888.5066 765.3892 886.1295 C 764.6627 885.0583 763.939 883.9848 763.2173 882.9099 Z M 588.3143 1138.496 C 581.5412 1147.8257 575.3375 1159.7134 570.6536 1170.1593 C 560.0276 1193.8587 553.432 1219.7608 553.432 1245.8245 C 553.432 1271.8877 560.0276 1297.7892 570.6536 1321.488 C 575.3375 1331.934 581.5412 1343.8217 588.3143 1353.1513 L 601.4551 1371.2533 L 614.596 1353.1513 C 621.3708 1343.8196 627.5747 1331.9382 632.2606 1321.4898 C 642.8894 1297.7909 649.4871 1271.8888 649.4871 1245.8245 C 649.4871 1219.7597 642.8894 1193.8569 632.2606 1170.1576 C 627.5747 1159.7091 621.3708 1147.8278 614.596 1138.496 L 601.4551 1120.3943 Z " fill-rule="evenodd"/>
<path transform="matrix(2.7777777,0,0,-2.7777777,2.7777777,3939.7852)" d="M 448.0262 1094.076 C 488.0324 997.4903 577.3144 942.7368 577.3144 942.7368 C 577.3144 942.7368 601.7255 1044.576 561.7108 1141.17 C 521.7046 1237.7642 432.4224 1292.5176 432.4224 1292.5176 C 432.4224 1292.5176 408.0115 1190.67 448.0262 1094.076 Z M 569.6705 1245.8245 C 569.6705 1191.8146 601.4551 1148.0355 601.4551 1148.0355 C 601.4551 1148.0355 633.2482 1191.8146 633.2482 1245.8245 C 633.2482 1299.8324 601.4551 1343.6116 601.4551 1343.6116 C 601.4551 1343.6116 569.6705 1299.8324 569.6705 1245.8245 Z M 569.6705 523.0477 C 569.6705 577.0576 601.4551 620.837 601.4551 620.837 C 601.4551 620.837 633.2482 577.0576 633.2482 523.0477 C 633.2482 469.04 601.4551 425.2609 601.4551 425.2609 C 601.4551 425.2609 569.6705 469.04 569.6705 523.0477 Z M 824.849 1152.775 C 786.6624 1114.5881 778.1766 1061.1575 778.1766 1061.1575 C 778.1766 1061.1575 831.6133 1069.6348 869.8025 1107.8237 C 907.9892 1146.0192 916.4747 1199.4494 916.4747 1199.4494 C 916.4747 1199.4494 863.0379 1190.9639 824.849 1152.775 Z M 949.1692 916.221 C 895.1615 916.221 851.3736 884.4364 851.3736 884.4364 C 851.3736 884.4364 895.1615 852.6515 949.1692 852.6515 C 1003.1791 852.6515 1046.9585 884.4364 1046.9585 884.4364 C 1046.9585 884.4364 1003.1791 916.221 949.1692 916.221 Z M 869.8025 661.0425 C 831.6133 699.2376 778.1766 707.7149 778.1766 707.7149 C 778.1766 707.7149 786.6624 654.2844 824.849 616.0978 C 863.0379 577.9023 916.4747 569.4165 916.4747 569.4165 C 916.4747 569.4165 907.9892 622.8533 869.8025 661.0425 Z M 378.0675 616.0978 C 416.2564 654.2844 424.7419 707.7149 424.7419 707.7149 C 424.7419 707.7149 371.3031 699.2376 333.1162 661.0425 C 294.9276 622.8533 286.4415 569.4165 286.4415 569.4165 C 286.4415 569.4165 339.8805 577.9023 378.0675 616.0978 Z M 253.7473 852.6515 C 307.7572 852.6515 351.5451 884.4364 351.5451 884.4364 C 351.5451 884.4364 307.7572 916.221 253.7473 916.221 C 199.7396 916.221 155.9602 884.4364 155.9602 884.4364 C 155.9602 884.4364 199.7396 852.6515 253.7473 852.6515 Z M 333.1162 1107.8237 C 371.3031 1069.6348 424.7419 1061.1575 424.7419 1061.1575 C 424.7419 1061.1575 416.2564 1114.5881 378.0675 1152.775 C 339.8805 1190.9639 286.4415 1199.4494 286.4415 1199.4494 C 286.4415 1199.4494 294.9276 1146.0192 333.1162 1107.8237 Z M 641.2056 1141.17 C 601.1932 1044.576 625.604 942.7368 625.604 942.7368 C 625.604 942.7368 714.884 997.4903 754.8925 1094.076 C 794.9052 1190.67 770.4941 1292.5176 770.4941 1292.5176 C 770.4941 1292.5176 681.2141 1237.7642 641.2056 1141.17 Z M 811.1032 1037.8738 C 714.509 997.8588 659.7558 908.5853 659.7558 908.5853 C 659.7558 908.5853 761.6035 884.1722 858.1975 924.1804 C 954.7829 964.1866 1009.5364 1053.4689 1009.5364 1053.4689 C 1009.5364 1053.4689 907.6887 1077.8798 811.1032 1037.8738 Z M 858.1975 844.6921 C 761.6035 884.6983 659.7558 860.2875 659.7558 860.2875 C 659.7558 860.2875 714.509 771.0072 811.1032 730.999 C 907.6887 690.9928 1009.5364 715.4039 1009.5364 715.4039 C 1009.5364 715.4039 954.7829 804.6859 858.1975 844.6921 Z M 754.8925 674.7883 C 714.884 771.3822 625.604 826.1357 625.604 826.1357 C 625.604 826.1357 601.1932 724.288 641.2056 627.7025 C 681.2141 531.1086 770.4941 476.3551 770.4941 476.3551 C 770.4941 476.3551 794.9052 578.2028 754.8925 674.7883 Z M 561.7108 627.7025 C 601.7255 724.288 577.3144 826.1357 577.3144 826.1357 C 577.3144 826.1357 488.0324 771.3822 448.0262 674.7883 C 408.0115 578.2028 432.4224 476.3551 432.4224 476.3551 C 432.4224 476.3551 521.7046 531.1086 561.7108 627.7025 Z M 391.8155 730.999 C 488.4094 771.0072 543.1629 860.2875 543.1629 860.2875 C 543.1629 860.2875 441.3152 884.6983 344.721 844.6921 C 248.1335 804.6859 193.3736 715.4039 193.3736 715.4039 C 193.3736 715.4039 295.2278 690.9928 391.8155 730.999 Z M 344.721 924.1804 C 441.3152 884.1722 543.1629 908.5853 543.1629 908.5853 C 543.1629 908.5853 488.4094 997.8588 391.8155 1037.8738 C 295.2278 1077.8798 193.3736 1053.4689 193.3736 1053.4689 C 193.3736 1053.4689 248.1335 964.1866 344.721 924.1804 " fill="#fbd10d" fill-rule="evenodd"/>
<path transform="matrix(2.7777777,0,0,-2.7777777,2.7777777,3939.7852)" d="M 604.7705 223.6612 C 475.6666 214.3877 580.593 624.3384 529.4214 766.7067 C 514.9945 800.1221 497.0548 832.7659 476.7409 864.2849 C 456.4114 895.8044 433.6863 926.2559 409.2165 955.4652 C 396.9547 970.0393 384.2575 984.3763 371.1231 998.299 C 364.5524 1005.2895 357.8624 1012.1627 351.0669 1018.9769 C 347.6659 1022.3521 344.2255 1025.7299 340.7635 1029.0468 C 337.2874 1032.3652 333.779 1035.682 330.1954 1038.8836 C 334.336 1036.3947 338.4434 1033.8452 342.5122 1031.239 C 346.5836 1028.6915 350.6363 1026.0264 354.6524 1023.3592 C 362.7026 1017.9677 370.6835 1012.5176 378.5825 1006.8891 C 394.3692 995.6339 409.881 983.901 425.0772 971.6981 C 455.4658 947.3477 484.6898 921.1022 512.2514 892.6645 C 526.0141 878.4451 539.3798 863.6335 552.1949 848.2878 C 565.0033 832.8858 577.2801 816.8298 588.8614 800.1221 C 594.2424 792.3008 599.4615 784.362 604.51 776.306 C 608.7387 783.2358 613.1064 790.05 617.5726 796.7443 C 628.9123 813.6893 640.9644 829.9828 653.5417 845.5637 C 666.1295 861.2039 679.2664 876.2528 692.8398 890.7097 C 719.9793 919.5613 748.8207 946.3411 778.8453 971.2227 C 793.8652 983.666 809.2023 995.6339 824.8153 1007.1264 C 832.64 1012.873 840.5158 1018.5015 848.5004 1024.0126 C 852.4837 1026.7367 856.5007 1029.4628 860.5168 1032.1282 C 864.5695 1034.7344 868.6026 1037.4015 872.7265 1039.89 C 869.2146 1036.5712 865.7949 1033.1939 862.4066 1029.818 C 859.0161 1026.3814 855.6639 1022.9448 852.3218 1019.5087 C 845.6862 1012.5176 839.177 1005.4681 832.7832 998.3574 C 819.9808 984.0798 807.6283 969.5055 795.7361 954.576 C 771.9616 924.8349 749.9871 893.8497 730.442 861.8553 C 710.9135 829.8632 693.7985 796.8643 680.2245 763.1524 C 622.554 621.0887 714.7687 229.1995 607.0929 223.7202 C 606.3114 223.7202 605.5398 223.6612 604.7705 223.6612 Z M 651.6499 661.1902 L 651.6499 661.1902 Z " fill="#e60013"/>
<path transform="matrix(2.7777777,0,0,-2.7777777,2.7777777,3939.7852)" d="M 604.2665 830.6923 C 573.9443 830.6923 549.3691 855.2798 549.3691 885.6133 C 549.3691 915.9471 573.9443 940.5346 604.2665 940.5346 C 634.5706 940.5346 659.1455 915.9471 659.1455 885.6133 C 659.1455 855.2798 634.5706 830.6923 604.2665 830.6923 " fill="#e60013"/>
<path transform="matrix(2.7777777,0,0,-2.7777777,2.7777777,3939.7852)" d="M 715.388 386.9237 C 715.388 386.9237 760.5397 420.044 832.9042 458.8665 C 905.2696 497.6906 942.2813 524.3831 958.3262 560.8814 C 974.3573 597.39 1010.4449 628.6088 1013.9221 544.1117 C 1013.9221 544.1117 1024.1015 472.858 936.9184 414.3504 C 812.2768 327.8789 914.4686 290.2541 990.7163 394.8446 C 1047.7299 473.0601 1056.2026 501.7286 1076.83 584.1598 C 1097.4336 666.6157 1117.2651 684.9777 1122.1727 695.469 C 1127.0803 705.96 1169.4815 740.8891 1157.4618 662.6089 C 1157.4618 662.6089 1151.2636 634.4133 1147.578 538.9444 C 1143.8909 443.4766 1124.482 276.0545 936.8697 165.7602 C 415.6807 -118.4295 448.977 149.1378 715.388 386.9237 " fill="#006835"/>
<path transform="matrix(2.7777777,0,0,-2.7777777,2.7777777,3939.7852)" d="M 487.5341 386.9237 C 487.5341 386.9237 442.3827 420.044 370.0182 458.8665 C 297.6525 497.6906 260.6409 524.3831 244.5959 560.8814 C 228.5651 597.39 192.4775 628.6088 189 544.1117 C 189 544.1117 178.8211 472.858 266.004 414.3504 C 390.6454 327.8789 288.4538 290.2541 212.2061 394.8446 C 155.1923 473.0601 146.7198 501.7286 126.0921 584.1598 C 105.4885 666.6157 85.6573 684.9777 80.7497 695.469 C 75.8421 705.96 33.4406 740.8891 45.4603 662.6089 C 45.4603 662.6089 51.6589 634.4133 55.3445 538.9444 C 59.0315 443.4766 78.4403 276.0545 266.0525 165.7602 C 787.2418 -118.4295 753.9454 149.1378 487.5341 386.9237 " fill="#006835"/>
</g>
</g>
</svg>
